<svg width="78" height="44" viewBox="0 0 78 44" fill="none" xmlns="http://www.w3.org/2000/svg">
<path fill-rule="evenodd" clip-rule="evenodd" d="M4.75018 5.92451C5.97719 5.92451 6.97187 4.92982 6.97187 3.70282C6.97187 2.47581 5.97719 1.48113 4.75018 1.48113C3.52317 1.48113 2.52849 2.47581 2.52849 3.70282C2.52849 4.92982 3.52317 5.92451 4.75018 5.92451ZM4.75018 7.40563C6.79519 7.40563 8.453 5.74783 8.453 3.70282C8.453 1.65781 6.79519 0 4.75018 0C2.70517 0 1.04736 1.65781 1.04736 3.70282C1.04736 5.74783 2.70517 7.40563 4.75018 7.40563Z" fill="white"/>
<path fill-rule="evenodd" clip-rule="evenodd" d="M22.5237 37.0281C31.1127 37.0281 38.0755 30.0654 38.0755 21.4763C38.0755 12.8873 31.1127 5.92449 22.5237 5.92449C13.9346 5.92449 6.97185 12.8873 6.97185 21.4763C6.97185 30.0654 13.9346 37.0281 22.5237 37.0281ZM22.5237 38.5093C31.9307 38.5093 39.5566 30.8834 39.5566 21.4763C39.5566 12.0693 31.9307 4.44336 22.5237 4.44336C13.1166 4.44336 5.49072 12.0693 5.49072 21.4763C5.49072 30.8834 13.1166 38.5093 22.5237 38.5093Z" fill="white"/>
<path fill-rule="evenodd" clip-rule="evenodd" d="M33.5589 32.5115C33.8481 32.2223 34.317 32.2223 34.6062 32.5115L44.5237 42.429C44.8129 42.7182 44.8129 43.1871 44.5237 43.4764C44.2345 43.7656 43.7656 43.7656 43.4764 43.4764L33.5589 33.5588C33.2697 33.2696 33.2697 32.8007 33.5589 32.5115Z" fill="white"/>
<path fill-rule="evenodd" clip-rule="evenodd" d="M13.6366 20.7358C18.1356 20.7358 21.7828 17.0886 21.7828 12.5896C21.7828 8.09058 18.1356 4.44341 13.6366 4.44341C9.13758 4.44341 5.4904 8.09058 5.4904 12.5896C5.4904 17.0886 9.13758 20.7358 13.6366 20.7358ZM13.6366 22.2169C18.9536 22.2169 23.2639 17.9066 23.2639 12.5896C23.2639 7.27258 18.9536 2.96228 13.6366 2.96228C8.31958 2.96228 4.00928 7.27258 4.00928 12.5896C4.00928 17.9066 8.31958 22.2169 13.6366 22.2169Z" fill="white"/>
<path fill-rule="evenodd" clip-rule="evenodd" d="M0.523657 43.4764C0.234449 43.1871 0.234449 42.7182 0.523657 42.429L8.3181 34.6346C8.6073 34.3454 9.0762 34.3454 9.36541 34.6346C9.65462 34.9238 9.65462 35.3927 9.36541 35.6819L1.57097 43.4764C1.28176 43.7656 0.812865 43.7656 0.523657 43.4764Z" fill="white"/>
<path d="M56.2929 20.2237C55.6314 20.2237 55.0137 20.1529 54.44 20.0111C53.873 19.8626 53.4174 19.6871 53.0731 19.4846C52.7356 19.2754 52.5669 19.0864 52.5669 18.9176C52.5669 18.8231 52.604 18.6983 52.6783 18.543C52.7593 18.3878 52.8504 18.2494 52.9516 18.1279C53.0529 18.0064 53.1339 17.9456 53.1946 17.9456C53.2486 17.9456 53.3668 17.9996 53.549 18.1076C53.9675 18.3236 54.3826 18.5025 54.7944 18.6443C55.2061 18.786 55.7056 18.8569 56.2929 18.8569C56.7518 18.8569 57.1602 18.7691 57.518 18.5936C57.8757 18.4181 58.1525 18.1718 58.3482 17.8545C58.5507 17.5305 58.652 17.1593 58.652 16.7408C58.652 16.2953 58.5305 15.9274 58.2875 15.6372C58.0512 15.3402 57.761 15.1073 57.4167 14.9386C57.0792 14.7631 56.5865 14.5471 55.9385 14.2906C55.2365 14.0206 54.6796 13.7708 54.2679 13.5413C53.8629 13.3051 53.5153 12.9642 53.225 12.5187C52.9415 12.0732 52.7998 11.4826 52.7998 10.7469C52.7998 10.1056 52.9651 9.53187 53.2959 9.02562C53.6266 8.51263 54.0958 8.11438 54.7032 7.83088C55.3107 7.54739 56.0094 7.40564 56.7991 7.40564C57.1568 7.40564 57.5652 7.45626 58.0242 7.55751C58.4832 7.65201 58.8747 7.78364 59.1987 7.95238C59.5294 8.12113 59.6948 8.30675 59.6948 8.50925C59.6948 8.597 59.6577 8.7185 59.5834 8.87375C59.5159 9.02225 59.4349 9.15725 59.3404 9.27874C59.2459 9.40024 59.1717 9.46099 59.1177 9.46099C59.0569 9.46099 58.9354 9.41037 58.7532 9.30912C58.4495 9.14712 58.1491 9.01887 57.8521 8.92437C57.5551 8.82312 57.194 8.7725 56.7687 8.7725C56.0735 8.7725 55.5099 8.95137 55.0779 9.30912C54.6526 9.66686 54.44 10.1664 54.44 10.8076C54.44 11.1923 54.5345 11.5096 54.7235 11.7593C54.9125 12.0091 55.1521 12.2082 55.4424 12.3567C55.7326 12.5052 56.1376 12.6773 56.6573 12.8731C56.6911 12.8798 56.7687 12.9068 56.8902 12.9541C57.6057 13.2308 58.1896 13.5008 58.6418 13.7641C59.1008 14.0206 59.4889 14.3918 59.8062 14.8778C60.1302 15.3638 60.2922 15.9848 60.2922 16.7408C60.2922 17.4495 60.1268 18.0671 59.7961 18.5936C59.4721 19.1201 59.0063 19.5251 58.3988 19.8086C57.7981 20.0854 57.0961 20.2237 56.2929 20.2237Z" fill="white"/>
<path d="M71.8678 20.2237C70.8216 20.2237 69.9306 20.0618 69.1949 19.7378C68.4591 19.407 67.9022 18.9311 67.5242 18.3101C67.1463 17.6892 66.9573 16.9467 66.9573 16.0827V7.88151C66.9573 7.61151 67.1969 7.47651 67.6761 7.47651H67.8179C68.2971 7.47651 68.5367 7.61151 68.5367 7.88151V16.1434C68.5367 16.6699 68.6819 17.139 68.9721 17.5508C69.2624 17.9625 69.6606 18.2831 70.1668 18.5126C70.6731 18.7421 71.2401 18.8569 71.8678 18.8569C72.5023 18.8569 73.0727 18.7421 73.5789 18.5126C74.0852 18.2764 74.48 17.9524 74.7635 17.5407C75.0538 17.1289 75.1989 16.6632 75.1989 16.1434V7.88151C75.1989 7.61151 75.4385 7.47651 75.9178 7.47651H76.0697C76.5421 7.47651 76.7784 7.61151 76.7784 7.88151V16.0827C76.7784 16.9467 76.5894 17.6892 76.2114 18.3101C75.8334 18.9311 75.2765 19.407 74.5408 19.7378C73.8051 20.0618 72.9141 20.2237 71.8678 20.2237Z" fill="white"/>
<path d="M52.1343 36.4452C51.8778 36.4452 51.6921 36.4149 51.5774 36.3541C51.4626 36.2866 51.4053 36.1854 51.4053 36.0504V24.1739C51.4053 23.9039 51.6483 23.7689 52.1343 23.7689H52.7721C53.1704 23.7689 53.4235 23.8802 53.5315 24.103L56.9335 30.0058L57.3992 31.1398L57.865 30.1071L61.277 24.103C61.3918 23.8802 61.6415 23.7689 62.0263 23.7689H62.6237C63.1029 23.7689 63.3425 23.9039 63.3425 24.1739V36.0504C63.3425 36.3136 63.1029 36.4452 62.6237 36.4452H62.5022C62.2457 36.4452 62.06 36.4149 61.9453 36.3541C61.8305 36.2866 61.7732 36.1854 61.7732 36.0504V26.3608L61.7428 26.4418L58.1586 32.6686C58.1113 32.7496 58.0573 32.8104 57.9966 32.8509C57.9358 32.8846 57.8582 32.9015 57.7637 32.9015H57.0448C56.8626 32.9015 56.7276 32.8239 56.6398 32.6686L52.9746 26.2596V36.0504C52.9746 36.3136 52.735 36.4452 52.2558 36.4452H52.1343Z" fill="white"/>
<path d="M72.3088 36.5161C70.5066 36.5161 69.133 35.9694 68.188 34.8759C67.243 33.7824 66.7705 32.1827 66.7705 30.0767C66.7705 27.9775 67.2396 26.3912 68.1779 25.318C69.1229 24.238 70.4999 23.698 72.3088 23.698C74.1246 23.698 75.5049 24.238 76.4499 25.318C77.3949 26.3912 77.8674 27.9775 77.8674 30.0767C77.8674 32.1827 77.3949 33.7824 76.4499 34.8759C75.5049 35.9694 74.1246 36.5161 72.3088 36.5161ZM72.3088 35.1492C73.5778 35.1492 74.5498 34.7173 75.2248 33.8533C75.8998 32.9825 76.2373 31.7237 76.2373 30.0767C76.2373 28.4297 75.8998 27.1843 75.2248 26.3406C74.5566 25.4901 73.5846 25.0649 72.3088 25.0649C71.0398 25.0649 70.0712 25.4901 69.403 26.3406C68.7347 27.1843 68.4006 28.4297 68.4006 30.0767C68.4006 31.7304 68.7347 32.9893 69.403 33.8533C70.0712 34.7173 71.0398 35.1492 72.3088 35.1492Z" fill="white"/>
</svg>